<svg width="24" height="31" viewBox="0 0 24 31" fill="none" xmlns="http://www.w3.org/2000/svg">
<mask id="path-1-inside-1_1595_8767" fill="white">
<path d="M1.35 20.7138C0.85 19.8655 0.5 19.0112 0.3 18.1511C0.0999997 17.291 0 16.4132 0 15.5177C0 12.4306 1.18125 9.77366 3.54375 7.54675C5.90625 5.31984 8.725 4.20639 12 4.20639H13.6125L10.6125 1.37856L12.075 0L17.6625 5.26682L12.075 10.5336L10.575 9.11973L13.5375 6.32725H12C9.325 6.32725 7.03125 7.22862 5.11875 9.03136C3.20625 10.8341 2.25 12.9962 2.25 15.5177C2.25 16.2011 2.31875 16.8491 2.45625 17.4618C2.59375 18.0745 2.7625 18.6518 2.9625 19.1938L1.35 20.7138ZM11.85 31L6.2625 25.7332L11.85 20.4664L13.3125 21.8449L10.3125 24.6727H12C14.675 24.6727 16.9688 23.7714 18.8813 21.9686C20.7938 20.1659 21.75 18.0038 21.75 15.4823C21.75 14.7989 21.6875 14.1509 21.5625 13.5382C21.4375 12.9255 21.25 12.3482 21 11.8062L22.6125 10.2862C23.1125 11.1346 23.4688 11.9888 23.6813 12.8489C23.8938 13.709 24 14.5869 24 15.4823C24 18.5694 22.8188 21.2263 20.4563 23.4533C18.0938 25.6802 15.275 26.7936 12 26.7936H10.3125L13.3125 29.6214L11.85 31Z"/>
</mask>
<path d="M1.35 20.7138C0.85 19.8655 0.5 19.0112 0.3 18.1511C0.0999997 17.291 0 16.4132 0 15.5177C0 12.4306 1.18125 9.77366 3.54375 7.54675C5.90625 5.31984 8.725 4.20639 12 4.20639H13.6125L10.6125 1.37856L12.075 0L17.6625 5.26682L12.075 10.5336L10.575 9.11973L13.5375 6.32725H12C9.325 6.32725 7.03125 7.22862 5.11875 9.03136C3.20625 10.8341 2.25 12.9962 2.25 15.5177C2.25 16.2011 2.31875 16.8491 2.45625 17.4618C2.59375 18.0745 2.7625 18.6518 2.9625 19.1938L1.35 20.7138ZM11.85 31L6.2625 25.7332L11.85 20.4664L13.3125 21.8449L10.3125 24.6727H12C14.675 24.6727 16.9688 23.7714 18.8813 21.9686C20.7938 20.1659 21.75 18.0038 21.75 15.4823C21.75 14.7989 21.6875 14.1509 21.5625 13.5382C21.4375 12.9255 21.25 12.3482 21 11.8062L22.6125 10.2862C23.1125 11.1346 23.4688 11.9888 23.6813 12.8489C23.8938 13.709 24 14.5869 24 15.4823C24 18.5694 22.8188 21.2263 20.4563 23.4533C18.0938 25.6802 15.275 26.7936 12 26.7936H10.3125L13.3125 29.6214L11.85 31Z" fill="white"/>
<path d="M1.35 20.7138L-8.12652 26.2991C-6.42787 29.1812 -3.50996 31.1336 -0.197814 31.6044C3.11433 32.0751 6.46069 31.013 8.89509 28.7183L1.35 20.7138ZM13.6125 4.20639V15.2064C18.1208 15.2064 22.1727 12.4555 23.8362 8.26537C25.4998 4.07524 24.4382 -0.705789 21.1576 -3.79809L13.6125 4.20639ZM10.6125 1.37856L3.06742 -6.62592C0.862451 -4.5475 -0.3875 -1.65157 -0.3875 1.37856C-0.3875 4.40869 0.86245 7.30463 3.06742 9.38304L10.6125 1.37856ZM12.075 0L19.6201 -8.00448C15.3829 -11.9985 8.76713 -11.9985 4.52992 -8.00448L12.075 0ZM17.6625 5.26682L25.2076 13.2713C27.4125 11.1929 28.6625 8.29695 28.6625 5.26682C28.6625 2.23669 27.4125 -0.659244 25.2076 -2.73766L17.6625 5.26682ZM12.075 10.5336L4.52992 18.5381C8.76713 22.5321 15.3829 22.5321 19.6201 18.5381L12.075 10.5336ZM10.575 9.11973L3.02992 1.11525C0.824951 3.19366 -0.425 6.0896 -0.425 9.11973C-0.425 12.1499 0.824951 15.0458 3.02992 17.1242L10.575 9.11973ZM13.5375 6.32725L21.0826 14.3317C24.3632 11.2394 25.4248 6.4584 23.7612 2.26827C22.0977 -1.92186 18.0458 -4.67275 13.5375 -4.67275V6.32725ZM2.9625 19.1938L10.5076 27.1983C13.717 24.1731 14.8092 19.5235 13.2823 15.3858L2.9625 19.1938ZM11.85 31L4.30491 39.0045C8.54212 42.9985 15.1579 42.9985 19.3951 39.0045L11.85 31ZM6.2625 25.7332L-1.28258 17.7287C-3.48755 19.8071 -4.7375 22.703 -4.7375 25.7332C-4.7375 28.7633 -3.48755 31.6592 -1.28258 33.7377L6.2625 25.7332ZM11.85 20.4664L19.3951 12.4619C15.1579 8.46786 8.54212 8.46786 4.30492 12.4619L11.85 20.4664ZM13.3125 21.8449L20.8576 29.8494C23.0625 27.771 24.3125 24.8751 24.3125 21.8449C24.3125 18.8148 23.0625 15.9189 20.8576 13.8404L13.3125 21.8449ZM10.3125 24.6727L2.76742 16.6683C-0.51317 19.7606 -1.57478 24.5416 0.0887704 28.7317C1.75232 32.9219 5.80422 35.6727 10.3125 35.6727V24.6727ZM21 11.8062L13.4549 3.80167C10.0153 7.04392 9.03153 12.1212 11.0114 16.4135L21 11.8062ZM22.6125 10.2862L32.089 4.70091C30.3904 1.81882 27.4725 -0.133616 24.1603 -0.604354C20.8482 -1.07509 17.5018 -0.0129626 15.0674 2.28172L22.6125 10.2862ZM10.3125 26.7936V15.7936C5.80422 15.7936 1.75232 18.5445 0.0887709 22.7346C-1.57478 26.9248 -0.513171 31.7058 2.76742 34.7981L10.3125 26.7936ZM13.3125 29.6214L20.8576 37.6259C23.0625 35.5475 24.3125 32.6516 24.3125 29.6214C24.3125 26.5913 23.0626 23.6954 20.8576 21.617L13.3125 29.6214ZM10.8265 15.1285C10.8265 15.1285 10.8333 15.14 10.8448 15.1631C10.8564 15.1862 10.8725 15.2207 10.8913 15.2664C10.9293 15.3592 10.975 15.4914 11.0142 15.6598L-10.4142 20.6424C-9.93388 22.708 -9.12926 24.5978 -8.12652 26.2991L10.8265 15.1285ZM11.0142 15.6598C11.0068 15.6279 11 15.5864 11 15.5177H-11C-11 17.2399 -10.8068 18.954 -10.4142 20.6424L11.0142 15.6598ZM11 15.5177C11 15.4829 11.0016 15.4661 11.0017 15.4651C11.0018 15.4644 11.0006 15.4763 10.996 15.4988C10.9914 15.5214 10.9841 15.5502 10.9736 15.5832C10.963 15.6162 10.9506 15.6484 10.9373 15.6784C10.9241 15.7082 10.9119 15.7312 10.9031 15.7464C10.8943 15.7615 10.891 15.7653 10.8965 15.7577C10.9068 15.7436 10.9606 15.6721 11.0888 15.5512L-4.00133 -0.457731C-8.4408 3.72694 -11 9.22898 -11 15.5177H11ZM11.0888 15.5512C11.3271 15.3266 11.4505 15.2803 11.471 15.2722C11.4932 15.2634 11.6338 15.2064 12 15.2064V-6.79361C5.94736 -6.79361 0.42208 -4.62727 -4.00133 -0.457731L11.0888 15.5512ZM12 15.2064H13.6125V-6.79361H12V15.2064ZM21.1576 -3.79809L18.1576 -6.62592L3.06742 9.38304L6.06742 12.2109L21.1576 -3.79809ZM18.1576 9.38305L19.6201 8.00448L4.52992 -8.00448L3.06742 -6.62592L18.1576 9.38305ZM4.52992 8.00448L10.1174 13.2713L25.2076 -2.73766L19.6201 -8.00448L4.52992 8.00448ZM10.1174 -2.73766L4.52992 2.52916L19.6201 18.5381L25.2076 13.2713L10.1174 -2.73766ZM19.6201 2.52916L18.1201 1.11525L3.02992 17.1242L4.52992 18.5381L19.6201 2.52916ZM18.1201 17.1242L21.0826 14.3317L5.99242 -1.67723L3.02992 1.11525L18.1201 17.1242ZM13.5375 -4.67275H12V17.3273H13.5375V-4.67275ZM12 -4.67275C6.57555 -4.67275 1.56733 -2.73758 -2.42633 1.02688L12.6638 17.0358C12.6744 17.0259 12.645 17.0549 12.5731 17.1012C12.4998 17.1483 12.4054 17.1984 12.2966 17.2412C12.188 17.2838 12.0943 17.3077 12.0287 17.3196C11.9648 17.3312 11.9509 17.3273 12 17.3273V-4.67275ZM-2.42633 1.02688C-6.43873 4.80899 -8.75 9.82464 -8.75 15.5177H13.25C13.25 15.6857 13.2095 16.0421 13.0272 16.4543C12.8494 16.8564 12.6551 17.0441 12.6638 17.0358L-2.42633 1.02688ZM-8.75 15.5177C-8.75 16.9407 -8.60655 18.4011 -8.27679 19.8705L13.1893 15.0531C13.244 15.2971 13.25 15.4614 13.25 15.5177H-8.75ZM-8.27679 19.8705C-8.04177 20.9177 -7.73967 21.9657 -7.35732 23.0019L13.2823 15.3858C13.2647 15.338 13.2293 15.2312 13.1893 15.0531L-8.27679 19.8705ZM-4.58259 11.1894L-6.19509 12.7093L8.89509 28.7183L10.5076 27.1983L-4.58259 11.1894ZM19.3951 22.9955L13.8076 17.7287L-1.28258 33.7377L4.30491 39.0045L19.3951 22.9955ZM13.8076 33.7377L19.3951 28.4708L4.30492 12.4619L-1.28258 17.7287L13.8076 33.7377ZM4.30492 28.4709L5.76742 29.8494L20.8576 13.8404L19.3951 12.4619L4.30492 28.4709ZM5.76742 13.8404L2.76742 16.6683L17.8576 32.6772L20.8576 29.8494L5.76742 13.8404ZM10.3125 35.6727H12V13.6727H10.3125V35.6727ZM12 35.6727C17.4244 35.6727 22.4327 33.7376 26.4263 29.9731L11.3362 13.9642C11.3256 13.9741 11.355 13.9451 11.4269 13.8988C11.5002 13.8517 11.5946 13.8016 11.7034 13.7588C11.812 13.7162 11.9057 13.6923 11.9713 13.6804C12.0352 13.6688 12.0491 13.6727 12 13.6727V35.6727ZM26.4263 29.9731C30.4387 26.191 32.75 21.1754 32.75 15.4823H10.75C10.75 15.3143 10.7905 14.9579 10.9728 14.5457C11.1506 14.1436 11.3449 13.9559 11.3362 13.9642L26.4263 29.9731ZM32.75 15.4823C32.75 14.1279 32.626 12.7389 32.3405 11.3393L10.7845 15.7371C10.749 15.5629 10.75 15.47 10.75 15.4823H32.75ZM32.3405 11.3393C32.0541 9.93557 31.6102 8.54632 30.9886 7.19885L11.0114 16.4135C10.8898 16.15 10.8209 15.9154 10.7845 15.7371L32.3405 11.3393ZM28.5451 19.8106L30.1576 18.2907L15.0674 2.28172L13.4549 3.80167L28.5451 19.8106ZM13.136 15.8715C13.154 15.9021 13.0723 15.7706 13.0023 15.4872L34.3602 10.2106C33.8652 8.20696 33.071 6.36697 32.089 4.70091L13.136 15.8715ZM13.0023 15.4872C13.0021 15.4864 13.0017 15.4844 13.0012 15.4817C13.0007 15.479 13.0003 15.4764 13 15.4742C12.9998 15.472 12.9997 15.4711 12.9998 15.4719C12.9998 15.4728 13 15.4761 13 15.4823H35C35 13.7073 34.7882 11.9432 34.3602 10.2106L13.0023 15.4872ZM13 15.4823C13 15.5171 12.9984 15.5339 12.9983 15.5349C12.9982 15.5356 12.9994 15.5237 13.004 15.5012C13.0086 15.4786 13.0159 15.4498 13.0264 15.4168C13.037 15.3838 13.0494 15.3516 13.0627 15.3216C13.0759 15.2918 13.0881 15.2688 13.0969 15.2536C13.1057 15.2385 13.109 15.2347 13.1035 15.2423C13.0932 15.2564 13.0394 15.3279 12.9112 15.4488L28.0013 31.4577C32.4408 27.2731 35 21.771 35 15.4823H13ZM12.9112 15.4488C12.6729 15.6734 12.5495 15.7197 12.529 15.7278C12.5068 15.7366 12.3662 15.7936 12 15.7936V37.7936C18.0526 37.7936 23.5779 35.6273 28.0013 31.4577L12.9112 15.4488ZM12 15.7936H10.3125V37.7936H12V15.7936ZM2.76742 34.7981L5.76742 37.6259L20.8576 21.617L17.8576 18.7891L2.76742 34.7981ZM5.76742 21.6169L4.30492 22.9955L19.3951 39.0045L20.8576 37.6259L5.76742 21.6169Z" fill="white" mask="url(#path-1-inside-1_1595_8767)"/>
</svg>
