<svg width="108" height="108" viewBox="0 0 108 108" fill="none" xmlns="http://www.w3.org/2000/svg">
<g filter="url(#filter0_f_1565_6333)">
<circle cx="54" cy="54" r="50" fill="#E0E0E0"/>
</g>
<mask id="path-2-inside-1_1565_6333" fill="white">
<path d="M37.1375 62.4094C36.3458 61.0411 35.7917 59.6632 35.475 58.2759C35.1583 56.8886 35 55.4728 35 54.0285C35 49.0494 36.8703 44.764 40.6109 41.1722C44.3516 37.5804 48.8146 35.7845 54 35.7845H56.5531L51.8031 31.2235L54.1188 29L62.9656 37.4949L54.1188 45.9897L51.7438 43.7092L56.4344 39.2052H54C49.7646 39.2052 46.1328 40.6591 43.1047 43.5667C40.0766 46.4743 38.5625 49.9616 38.5625 54.0285C38.5625 55.1308 38.6714 56.176 38.8891 57.1642C39.1068 58.1524 39.374 59.0836 39.6906 59.9578L37.1375 62.4094ZM53.7625 79L44.9156 70.5051L53.7625 62.0103L56.0781 64.2338L51.3281 68.7948H54C58.2354 68.7948 61.8672 67.3409 64.8953 64.4333C67.9234 61.5257 69.4375 58.0384 69.4375 53.9715C69.4375 52.8693 69.3385 51.824 69.1406 50.8358C68.9427 49.8476 68.6458 48.9164 68.25 48.0422L70.8031 45.5907C71.5948 46.959 72.1589 48.3368 72.4953 49.7241C72.8318 51.1114 73 52.5272 73 53.9715C73 58.9506 71.1297 63.236 67.3891 66.8278C63.6484 70.4196 59.1854 72.2155 54 72.2155H51.3281L56.0781 76.7765L53.7625 79Z"/>
</mask>
<path d="M37.1375 62.4094C36.3458 61.0411 35.7917 59.6632 35.475 58.2759C35.1583 56.8886 35 55.4728 35 54.0285C35 49.0494 36.8703 44.764 40.6109 41.1722C44.3516 37.5804 48.8146 35.7845 54 35.7845H56.5531L51.8031 31.2235L54.1188 29L62.9656 37.4949L54.1188 45.9897L51.7438 43.7092L56.4344 39.2052H54C49.7646 39.2052 46.1328 40.6591 43.1047 43.5667C40.0766 46.4743 38.5625 49.9616 38.5625 54.0285C38.5625 55.1308 38.6714 56.176 38.8891 57.1642C39.1068 58.1524 39.374 59.0836 39.6906 59.9578L37.1375 62.4094ZM53.7625 79L44.9156 70.5051L53.7625 62.0103L56.0781 64.2338L51.3281 68.7948H54C58.2354 68.7948 61.8672 67.3409 64.8953 64.4333C67.9234 61.5257 69.4375 58.0384 69.4375 53.9715C69.4375 52.8693 69.3385 51.824 69.1406 50.8358C68.9427 49.8476 68.6458 48.9164 68.25 48.0422L70.8031 45.5907C71.5948 46.959 72.1589 48.3368 72.4953 49.7241C72.8318 51.1114 73 52.5272 73 53.9715C73 58.9506 71.1297 63.236 67.3891 66.8278C63.6484 70.4196 59.1854 72.2155 54 72.2155H51.3281L56.0781 76.7765L53.7625 79Z" fill="white"/>
<path d="M37.1375 62.4094L27.6163 67.9181C29.3084 70.8427 32.2507 72.8274 35.5961 73.3008C38.9416 73.7743 42.3191 72.684 44.7562 70.3438L37.1375 62.4094ZM56.5531 35.7845V46.7845C61.0429 46.7845 65.082 44.0559 66.758 39.8907C68.434 35.7255 67.4104 30.9597 64.1718 27.8501L56.5531 35.7845ZM51.8031 31.2235L44.1844 23.2891C42.0242 25.3633 40.8031 28.2287 40.8031 31.2235C40.8031 34.2183 42.0242 37.0837 44.1844 39.1579L51.8031 31.2235ZM54.1187 29L61.7375 21.0656C57.4807 16.9781 50.7568 16.9781 46.5 21.0656L54.1187 29ZM62.9656 37.4949L70.5843 45.4293C72.7445 43.355 73.9656 40.4897 73.9656 37.4949C73.9656 34.5 72.7445 31.6347 70.5843 29.5604L62.9656 37.4949ZM54.1187 45.9897L46.5 53.9242C50.7568 58.0116 57.4807 58.0116 61.7375 53.9242L54.1187 45.9897ZM51.7437 43.7092L44.125 35.7748C41.9648 37.8491 40.7438 40.7144 40.7438 43.7092C40.7438 46.7041 41.9648 49.5694 44.125 51.6437L51.7437 43.7092ZM56.4344 39.2052L64.0531 47.1397C67.2916 44.03 68.3152 39.2643 66.6392 35.0991C64.9633 30.9339 60.9241 28.2052 56.4344 28.2052V39.2052ZM39.6906 59.9578L47.3094 67.8922C50.4468 64.8796 51.5144 60.3011 50.033 56.2114L39.6906 59.9578ZM53.7625 79L46.1438 86.9344C50.4006 91.0219 57.1244 91.0219 61.3812 86.9344L53.7625 79ZM44.9156 70.5051L37.2969 62.5707C35.1367 64.645 33.9156 67.5103 33.9156 70.5051C33.9156 73.4999 35.1367 76.3653 37.2969 78.4396L44.9156 70.5051ZM53.7625 62.0103L61.3812 54.0758C57.1244 49.9884 50.4006 49.9884 46.1438 54.0758L53.7625 62.0103ZM56.0781 64.2337L63.6968 72.1682C65.857 70.0939 67.0781 67.2286 67.0781 64.2337C67.0781 61.2389 65.857 58.3736 63.6968 56.2993L56.0781 64.2337ZM51.3281 68.7948L43.7094 60.8603C40.4709 63.97 39.4473 68.7357 41.1233 72.9009C42.7992 77.0661 46.8384 79.7948 51.3281 79.7948V68.7948ZM68.25 48.0422L60.6313 40.1078C57.2691 43.3362 56.3067 48.3333 58.2294 52.5795L68.25 48.0422ZM70.8031 45.5907L80.3243 40.0819C78.6323 37.1573 75.69 35.1726 72.3445 34.6992C68.999 34.2257 65.6216 35.316 63.1844 37.6562L70.8031 45.5907ZM51.3281 72.2155V61.2155C46.8384 61.2155 42.7992 63.9441 41.1233 68.1093C39.4473 72.2745 40.4709 77.0403 43.7094 80.1499L51.3281 72.2155ZM56.0781 76.7765L63.6968 84.7109C65.857 82.6367 67.0781 79.7713 67.0781 76.7765C67.0781 73.7817 65.857 70.9163 63.6968 68.8421L56.0781 76.7765ZM46.6587 56.9006C46.3586 56.3819 46.245 56.0287 46.1992 55.828L24.7508 60.7238C25.3384 63.2978 26.3331 65.7002 27.6163 67.9181L46.6587 56.9006ZM46.1992 55.828C46.0686 55.2558 46 54.6615 46 54.0285H24C24 56.2841 24.2481 58.5215 24.7508 60.7238L46.1992 55.828ZM46 54.0285C46 52.181 46.5485 50.7208 48.2297 49.1066L32.9922 33.2378C27.1921 38.8071 24 45.9178 24 54.0285H46ZM48.2297 49.1066C49.9219 47.4817 51.655 46.7845 54 46.7845V24.7845C45.9742 24.7845 38.7812 27.6791 32.9922 33.2378L48.2297 49.1066ZM54 46.7845H56.5531V24.7845H54V46.7845ZM64.1718 27.8501L59.4218 23.2891L44.1844 39.1579L48.9344 43.7189L64.1718 27.8501ZM59.4218 39.1579L61.7375 36.9344L46.5 21.0656L44.1844 23.2891L59.4218 39.1579ZM46.5 36.9344L55.3469 45.4293L70.5843 29.5604L61.7375 21.0656L46.5 36.9344ZM55.3469 29.5604L46.5 38.0553L61.7375 53.9242L70.5843 45.4293L55.3469 29.5604ZM61.7375 38.0553L59.3625 35.7748L44.125 51.6437L46.5 53.9242L61.7375 38.0553ZM59.3625 51.6437L64.0531 47.1397L48.8157 31.2708L44.125 35.7748L59.3625 51.6437ZM56.4344 28.2052H54V50.2052H56.4344V28.2052ZM54 28.2052C46.9527 28.2052 40.583 30.7381 35.486 35.6323L50.7234 51.5011C51.6827 50.58 52.5765 50.2052 54 50.2052V28.2052ZM35.486 35.6323C30.376 40.5389 27.5625 46.8598 27.5625 54.0285H49.5625C49.5625 53.0634 49.7771 52.4098 50.7234 51.5011L35.486 35.6323ZM27.5625 54.0285C27.5625 55.8565 27.7433 57.6998 28.1467 59.5308L49.6315 54.7976C49.5994 54.6522 49.5625 54.405 49.5625 54.0285H27.5625ZM28.1467 59.5308C28.4586 60.9466 28.8548 62.3419 29.3483 63.7042L50.033 56.2114C49.8932 55.8254 49.755 55.3582 49.6315 54.7976L28.1467 59.5308ZM32.0719 52.0234L29.5188 54.4749L44.7562 70.3438L47.3094 67.8922L32.0719 52.0234ZM61.3812 71.0656L52.5343 62.5707L37.2969 78.4396L46.1438 86.9344L61.3812 71.0656ZM52.5343 78.4396L61.3812 69.9447L46.1438 54.0758L37.2969 62.5707L52.5343 78.4396ZM46.1438 69.9447L48.4594 72.1682L63.6968 56.2993L61.3812 54.0758L46.1438 69.9447ZM48.4594 56.2993L43.7094 60.8603L58.9468 76.7292L63.6968 72.1682L48.4594 56.2993ZM51.3281 79.7948H54V57.7948H51.3281V79.7948ZM54 79.7948C61.0473 79.7948 67.417 77.2619 72.514 72.3677L57.2766 56.4989C56.3173 57.42 55.4235 57.7948 54 57.7948V79.7948ZM72.514 72.3677C77.624 67.4611 80.4375 61.1402 80.4375 53.9715H58.4375C58.4375 54.9366 58.2229 55.5902 57.2766 56.4989L72.514 72.3677ZM80.4375 53.9715C80.4375 52.2107 80.2794 50.4378 79.9264 48.6757L58.3548 52.9959C58.3977 53.2103 58.4375 53.5278 58.4375 53.9715H80.4375ZM79.9264 48.6757C79.5727 46.9096 79.0278 45.177 78.2706 43.5049L58.2294 52.5795C58.2639 52.6557 58.3127 52.7856 58.3548 52.9959L79.9264 48.6757ZM75.8687 55.9766L78.4218 53.5251L63.1844 37.6562L60.6313 40.1078L75.8687 55.9766ZM61.2819 51.0994C61.6024 51.6533 61.7419 52.0555 61.8052 52.3167L83.1854 47.1314C82.5758 44.618 81.5872 42.2646 80.3243 40.0819L61.2819 51.0994ZM61.8052 52.3167C61.9334 52.8452 62 53.3903 62 53.9715H84C84 51.6641 83.7302 49.3776 83.1854 47.1314L61.8052 52.3167ZM62 53.9715C62 55.819 61.4515 57.2792 59.7703 58.8934L75.0078 74.7622C80.8079 69.1929 84 62.0822 84 53.9715H62ZM59.7703 58.8934C58.0781 60.5183 56.345 61.2155 54 61.2155V83.2155C62.0258 83.2155 69.2188 80.3209 75.0078 74.7622L59.7703 58.8934ZM54 61.2155H51.3281V83.2155H54V61.2155ZM43.7094 80.1499L48.4594 84.7109L63.6968 68.8421L58.9468 64.2811L43.7094 80.1499ZM48.4594 68.8421L46.1438 71.0656L61.3812 86.9344L63.6968 84.7109L48.4594 68.8421Z" fill="#A9A9A9" mask="url(#path-2-inside-1_1565_6333)"/>
<defs>
<filter id="filter0_f_1565_6333" x="0" y="0" width="108" height="108" filterUnits="userSpaceOnUse" color-interpolation-filters="sRGB">
<feFlood flood-opacity="0" result="BackgroundImageFix"/>
<feBlend mode="normal" in="SourceGraphic" in2="BackgroundImageFix" result="shape"/>
<feGaussianBlur stdDeviation="2" result="effect1_foregroundBlur_1565_6333"/>
</filter>
</defs>
</svg>
