<svg width="108" height="108" viewBox="0 0 108 108" fill="none" xmlns="http://www.w3.org/2000/svg">
<g filter="url(#filter0_f_1565_6334)">
<circle cx="54" cy="54" r="50" fill="#E0E0E0"/>
</g>
<path d="M55.9711 70.8H38.8421C37.5105 70.8 36.3702 70.3304 35.4212 69.3912C34.4737 68.4504 34 67.32 34 66V39.6C34 38.28 34.4737 37.1504 35.4212 36.2112C36.3702 35.2704 37.5105 34.8 38.8421 34.8H41.2632V30H46.1053V34.8H60.6316V30H65.4737V34.8H67.8947C69.2263 34.8 70.3666 35.2704 71.3157 36.2112C72.2631 37.1504 72.7368 38.28 72.7368 39.6V54.18C72.3333 54.1 71.9403 54.0496 71.5578 54.0288C71.1737 54.0096 70.7597 54 70.3158 54C69.8719 54 69.4587 54.0096 69.0762 54.0288C68.6921 54.0496 68.2982 54.1 67.8947 54.18V46.8H38.8421V66H55.9711C55.8904 66.4 55.8395 66.7904 55.8185 67.1712C55.7992 67.5504 55.7895 67.96 55.7895 68.4C55.7895 68.84 55.7992 69.2496 55.8185 69.6288C55.8395 70.0096 55.8904 70.4 55.9711 70.8ZM67.8947 78V70.8H60.6316V66H67.8947V58.8H72.7368V66H80V70.8H72.7368V78H67.8947Z" fill="#BDBDBD"/>
<path d="M55.9711 70.8H38.8421C37.5105 70.8 36.3702 70.3304 35.4212 69.3912C34.4737 68.4504 34 67.32 34 66V39.6C34 38.28 34.4737 37.1504 35.4212 36.2112C36.3702 35.2704 37.5105 34.8 38.8421 34.8H41.2632V30H46.1053V34.8H60.6316V30H65.4737V34.8H67.8947C69.2263 34.8 70.3666 35.2704 71.3157 36.2112C72.2631 37.1504 72.7368 38.28 72.7368 39.6V54.18C72.3333 54.1 71.9403 54.0496 71.5578 54.0288C71.1737 54.0096 70.7597 54 70.3158 54C69.8719 54 69.4587 54.0096 69.0762 54.0288C68.6921 54.0496 68.2982 54.1 67.8947 54.18V46.8H38.8421V66H55.9711C55.8904 66.4 55.8395 66.7904 55.8185 67.1712C55.7992 67.5504 55.7895 67.96 55.7895 68.4C55.7895 68.84 55.7992 69.2496 55.8185 69.6288C55.8395 70.0096 55.8904 70.4 55.9711 70.8ZM67.8947 78V70.8H60.6316V66H67.8947V58.8H72.7368V66H80V70.8H72.7368V78H67.8947Z" fill="#B3B3B3"/>
<defs>
<filter id="filter0_f_1565_6334" x="0" y="0" width="108" height="108" filterUnits="userSpaceOnUse" color-interpolation-filters="sRGB">
<feFlood flood-opacity="0" result="BackgroundImageFix"/>
<feBlend mode="normal" in="SourceGraphic" in2="BackgroundImageFix" result="shape"/>
<feGaussianBlur stdDeviation="2" result="effect1_foregroundBlur_1565_6334"/>
</filter>
</defs>
</svg>
