<svg width="11" height="11" viewBox="0 0 11 11" fill="none" xmlns="http://www.w3.org/2000/svg">
<g clip-path="url(#clip0_748_3633)">
<path d="M5.5 11C6.95869 11 8.35764 10.4205 9.38909 9.38909C10.4205 8.35764 11 6.95869 11 5.5C11 4.04131 10.4205 2.64236 9.38909 1.61091C8.35764 0.579463 6.95869 0 5.5 0C4.04131 0 2.64236 0.579463 1.61091 1.61091C0.579463 2.64236 0 4.04131 0 5.5C0 6.95869 0.579463 8.35764 1.61091 9.38909C2.64236 10.4205 4.04131 11 5.5 11V11ZM5.5 1.03125C6.68519 1.03125 7.82183 1.50206 8.65988 2.34012C9.49794 3.17817 9.96875 4.31481 9.96875 5.5C9.96875 6.68519 9.49794 7.82183 8.65988 8.65988C7.82183 9.49794 6.68519 9.96875 5.5 9.96875C4.31481 9.96875 3.17817 9.49794 2.34012 8.65988C1.50206 7.82183 1.03125 6.68519 1.03125 5.5C1.03125 4.31481 1.50206 3.17817 2.34012 2.34012C3.17817 1.50206 4.31481 1.03125 5.5 1.03125V1.03125Z" fill="#219EBC"/>
<path d="M7.18921 3.40816L6.21708 2.43604L3.15289 5.50022L6.21708 8.56441L7.18921 7.59229L5.09714 5.50022L7.18921 3.40816Z" fill="#219EBC"/>
</g>
<defs>
<clipPath id="clip0_748_3633">
<rect width="11" height="11" fill="white"/>
</clipPath>
</defs>
</svg>
