<svg width="219" height="219" viewBox="0 0 219 219" fill="none" xmlns="http://www.w3.org/2000/svg">
<mask id="mask0_166_1270" style="mask-type:alpha" maskUnits="userSpaceOnUse" x="0" y="0" width="219" height="219">
<rect width="218.364" height="218.364" fill="#D9D9D9"/>
</mask>
<g mask="url(#mask0_166_1270)">
<path d="M109.864 172.871H45.4924C40.4883 172.871 36.2029 171.091 32.6363 167.53C29.0757 163.964 27.2955 159.678 27.2955 154.674V54.5909C27.2955 49.5867 29.0757 45.3044 32.6363 41.7438C36.2029 38.1772 40.4883 36.3939 45.4924 36.3939H54.5909V18.197H72.7879V36.3939H127.379V18.197H145.576V36.3939H154.674C159.678 36.3939 163.964 38.1772 167.53 41.7438C171.091 45.3044 172.871 49.5867 172.871 54.5909V109.864C171.355 109.561 169.878 109.37 168.44 109.291C166.997 109.218 165.441 109.182 163.773 109.182C162.105 109.182 160.552 109.218 159.114 109.291C157.671 109.37 156.191 109.561 154.674 109.864V81.8864H45.4924V154.674H109.864C109.561 156.191 109.37 157.671 109.291 159.114C109.218 160.552 109.182 162.105 109.182 163.773C109.182 165.441 109.218 166.994 109.291 168.431C109.37 169.875 109.561 171.355 109.864 172.871ZM154.674 200.167V172.871H127.379V154.674H154.674V127.379H172.871V154.674H200.167V172.871H172.871V200.167H154.674Z" fill="#219EBC"/>
</g>
</svg>
