<svg width="37" height="37" viewBox="0 0 37 37" fill="none" xmlns="http://www.w3.org/2000/svg">
<path d="M31.2188 9.39453H26.3047L25.134 6.11367C25.0531 5.88917 24.9049 5.69512 24.7096 5.55801C24.5143 5.42091 24.2814 5.34745 24.0428 5.34766H12.9572C12.4694 5.34766 12.0322 5.65479 11.8696 6.11367L10.6953 9.39453H5.78125C4.18418 9.39453 2.89062 10.6881 2.89062 12.2852V28.7617C2.89062 30.3588 4.18418 31.6523 5.78125 31.6523H31.2188C32.8158 31.6523 34.1094 30.3588 34.1094 28.7617V12.2852C34.1094 10.6881 32.8158 9.39453 31.2188 9.39453ZM18.5 25.8711C15.3059 25.8711 12.7188 23.284 12.7188 20.0898C12.7188 16.8957 15.3059 14.3086 18.5 14.3086C21.6941 14.3086 24.2812 16.8957 24.2812 20.0898C24.2812 23.284 21.6941 25.8711 18.5 25.8711ZM15.0312 20.0898C15.0312 21.0098 15.3967 21.8921 16.0472 22.5426C16.6977 23.1931 17.58 23.5586 18.5 23.5586C19.42 23.5586 20.3023 23.1931 20.9528 22.5426C21.6033 21.8921 21.9688 21.0098 21.9688 20.0898C21.9688 19.1699 21.6033 18.2876 20.9528 17.6371C20.3023 16.9865 19.42 16.6211 18.5 16.6211C17.58 16.6211 16.6977 16.9865 16.0472 17.6371C15.3967 18.2876 15.0312 19.1699 15.0312 20.0898Z" fill="#219EBC"/>
</svg>
