<svg width="29" height="29" viewBox="0 0 29 29" fill="none" xmlns="http://www.w3.org/2000/svg">
<path d="M20.6462 0C18.5372 0 16.4281 0.761957 14.8153 2.14074L3.31894 12.0099C1.19366 13.8779 0 16.4095 0 19.0489C0 21.6884 1.19366 24.22 3.31894 26.088C5.44798 27.9527 8.33333 29 11.3416 29C14.3499 29 17.2352 27.9527 19.3642 26.088L24.5335 21.5525L21.6801 19.0489L16.883 23.149L16.5108 23.6207C13.6574 26.1243 9.02578 26.1243 6.17236 23.6207C3.3603 21.1534 3.443 17.1622 6.17236 14.6586L17.6687 4.6806C19.2815 3.26553 21.9695 3.26553 23.6237 4.6806C25.2365 6.09566 25.1538 8.34525 23.6237 9.7966L13.2852 18.7587C12.8717 19.1215 12.1687 19.1215 11.7138 18.7587C11.3002 18.3958 11.3002 17.779 11.7138 17.3799L11.9619 17.271L15.7251 13.8604L12.8717 11.3568L8.86036 14.8763C6.87538 16.6179 6.87538 19.4843 8.86036 21.226C10.8453 22.9676 14.1123 23.0039 16.0973 21.226L26.4358 12.3727C29.6614 9.54261 29.6614 4.97087 26.4358 2.17702C24.823 0.761958 22.7553 0.0362837 20.6049 0.0362837L20.6462 0Z" fill="#219EBC"/>
</svg>
