<svg width="154" height="154" viewBox="0 0 154 154" fill="none" xmlns="http://www.w3.org/2000/svg">
<path fill-rule="evenodd" clip-rule="evenodd" d="M98.2392 134.943C97.5975 139.306 93.6192 142.771 88.8708 142.771H65.1292C60.3808 142.771 56.4025 139.306 55.825 134.622L54.0925 122.494C52.36 121.596 50.6917 120.633 49.0233 119.543L37.4733 124.162C32.9817 125.831 28.0408 123.97 25.8592 119.992L14.1167 99.6508C11.8708 95.4158 12.8333 90.4108 16.4267 87.5875L26.2442 79.9517C26.18 78.9892 26.1158 78.0267 26.1158 77C26.1158 76.0375 26.18 75.0108 26.2442 74.0483L16.4908 66.4125C12.705 63.525 11.7425 58.3275 14.1167 54.3492L25.9875 33.88C28.1692 29.9017 33.11 28.105 37.4733 29.8375L49.0875 34.5217C50.7558 33.4308 52.4242 32.4683 54.0925 31.57L55.825 19.3142C56.4025 14.8225 60.3808 11.2933 65.065 11.2933H88.8067C93.555 11.2933 97.5333 14.7583 98.1108 19.4425L99.8433 31.57C101.576 32.4683 103.244 33.4308 104.912 34.5217L116.463 29.9017C121.018 28.2333 125.959 30.0942 128.141 34.0725L139.948 54.4775C142.258 58.7125 141.231 63.7175 137.637 66.5408L127.884 74.1767C127.948 75.1392 128.012 76.1017 128.012 77.1283C128.012 78.155 127.948 79.1175 127.884 80.08L137.637 87.7158C141.231 90.6033 142.258 95.6083 140.012 99.6508L128.077 120.312C125.895 124.291 120.954 126.088 116.527 124.355L104.977 119.735C103.308 120.826 101.64 121.788 99.9717 122.687L98.2392 134.943ZM68.145 129.938H85.855L88.2292 113.575L91.63 112.163C94.4533 111.008 97.2767 109.34 100.228 107.158L103.116 104.977L118.387 111.137L127.243 95.7367L114.217 85.5983L114.666 82.005L114.686 81.8323C114.871 80.2257 115.051 78.6726 115.051 77C115.051 75.2675 114.858 73.5992 114.666 71.995L114.217 68.4017L127.243 58.2633L118.323 42.8633L102.988 49.0233L100.1 46.7775C97.405 44.7242 94.5175 43.0558 91.5658 41.8367L88.2292 40.425L85.855 24.0625H68.145L65.7708 40.425L62.37 41.7725C59.5467 42.9917 56.7233 44.5958 53.7717 46.8417L50.8842 48.9592L35.6125 42.8633L26.6933 58.1992L39.7192 68.3375L39.27 71.9308C39.0775 73.5992 38.885 75.3317 38.885 77C38.885 78.6683 39.0133 80.4008 39.27 82.005L39.7192 85.5983L26.6933 95.7367L35.5483 111.137L50.8842 104.977L53.7717 107.222C56.5308 109.34 59.29 110.944 62.3058 112.163L65.7067 113.575L68.145 129.938ZM99.4583 77C99.4583 89.4034 89.4034 99.4583 77 99.4583C64.5966 99.4583 54.5417 89.4034 54.5417 77C54.5417 64.5966 64.5966 54.5417 77 54.5417C89.4034 54.5417 99.4583 64.5966 99.4583 77Z" fill="#219EBC"/>
</svg>
