<svg width="161" height="145" viewBox="0 0 161 145" fill="none" xmlns="http://www.w3.org/2000/svg">
<path d="M9 86.5V134.5C9 135.605 9.89543 136.5 11 136.5H150C151.105 136.5 152 135.605 152 134.5V86.5" stroke="#219EBC" stroke-width="17" stroke-linecap="round"/>
<path d="M72.5001 105.956C72.4759 110.651 76.2618 114.476 80.9562 114.5C85.6505 114.524 89.4757 110.738 89.4999 106.044L72.5001 105.956ZM87.5413 3.02065C84.239 -0.31587 78.8572 -0.343611 75.5207 2.95869L21.1489 56.7728C17.8123 60.0751 17.7846 65.4569 21.0869 68.7935C24.3892 72.13 29.771 72.1577 33.1076 68.8554L81.438 21.0207L129.273 69.3511C132.575 72.6877 137.957 72.7154 141.293 69.4131C144.63 66.1108 144.658 60.729 141.355 57.3924L87.5413 3.02065ZM89.4999 106.044L89.9999 9.04381L73.0001 8.95619L72.5001 105.956L89.4999 106.044Z" fill="#219EBC"/>
</svg>
